<svg width="106" height="72" viewBox="0 0 106 72" fill="none" xmlns="http://www.w3.org/2000/svg">
<g clip-path="url(#clip0_2314_240768)">
<path d="M52.7231 61.077C52.7231 58.2774 54.974 56.0307 57.7788 56.0307C60.5836 56.0307 62.8334 58.2774 62.8334 61.077C62.8334 63.8765 60.5836 66.1233 57.7788 66.1233C54.974 66.1233 52.7231 63.8765 52.7231 61.077ZM73.2908 61.077C73.2908 58.2774 75.5417 56.0307 78.3465 56.0307C81.1502 56.0307 83.4011 58.2774 83.4011 61.077C83.4011 63.8765 81.1502 66.1233 78.3465 66.1233C75.5417 66.1233 73.2908 63.8765 73.2908 61.077ZM25.6116 61.077C25.6116 58.2774 27.8615 56.0307 30.6673 56.0307C33.471 56.0307 35.722 58.2774 35.722 61.077C35.722 63.8765 33.471 66.1233 30.6673 66.1233C27.8615 66.1233 25.6116 63.8765 25.6116 61.077ZM5.04391 61.077C5.04391 58.2774 7.29379 56.0307 10.0986 56.0307C12.9044 56.0307 15.1543 58.2774 15.1543 61.077C15.1543 63.8765 12.9044 66.1233 10.0986 66.1233C7.29379 66.1233 5.04391 63.8765 5.04391 61.077ZM46.6286 52.1599H42.2313V69.8209H46.6286V52.1599ZM15.1198 69.8209H19.5172V52.1599H15.1198V53.5774C13.6307 52.5406 11.8301 51.9534 9.89166 51.9534C4.83595 51.9534 0.75 56.0307 0.75 61.077C0.75 66.1577 4.83595 70.2006 9.89166 70.2006C11.8301 70.2006 13.6307 69.6133 15.1198 68.5765V69.8209ZM83.3667 69.8209H87.764V52.1599H83.3667V53.5774C81.8775 52.5406 80.077 51.9534 78.1385 51.9534C73.0828 51.9534 68.9979 56.0307 68.9979 61.077C68.9979 66.1577 73.0828 70.2006 78.1385 70.2006C80.077 70.2006 81.8775 69.6133 83.3667 68.5765V69.8209ZM89.3921 64.0831C89.5301 67.643 92.5773 70.1661 97.6675 70.1661C101.822 70.1661 105.25 68.369 105.25 64.3949C105.25 61.6298 103.692 60.0058 100.091 59.3142L97.286 58.7614C95.4855 58.4162 94.2388 58.0699 94.2388 56.9986C94.2388 55.8242 95.451 55.3058 96.9746 55.3058C99.1911 55.3058 100.091 56.4114 100.16 57.7246H104.593C104.35 54.2679 101.58 51.9534 97.1136 51.9534C92.5083 51.9534 89.7725 54.4755 89.7725 57.759C89.7725 61.7685 93.0277 62.4246 95.8325 62.943L98.1524 63.3581C99.8139 63.669 100.541 64.1529 100.541 65.1209C100.541 65.9845 99.7104 66.8482 97.7364 66.8482C94.8627 66.8482 93.9274 65.3629 93.8929 64.0831H89.3921ZM35.6875 46.1467V53.5774C34.1984 52.5406 32.3978 51.9534 30.4593 51.9534C25.4036 51.9534 21.3177 56.0307 21.3177 61.077C21.3177 66.1577 25.4036 70.2006 30.4593 70.2006C32.3978 70.2006 34.1984 69.6133 35.6875 68.5765V69.8209H40.0848V46.1467H35.6875ZM62.799 46.1467V53.5774C61.3098 52.5406 59.5093 51.9534 57.5708 51.9534C52.5151 51.9534 48.4302 56.0307 48.4302 61.077C48.4302 66.1577 52.5151 70.2006 57.5708 70.2006C59.5093 70.2006 61.3098 69.6133 62.799 68.5765V69.8209H67.1963V46.1467H62.799ZM12.176 40.9283L15.1543 46.1467H35.6875L27.5501 32.1145L12.176 40.9283ZM46.6286 50.5359V46.1467H62.799L45.5554 16.355L30.1469 25.1678L42.2313 46.1467V50.5359H46.6286ZM69.3438 46.1467H89.9115L63.3183 0.214844L47.9453 9.06202L69.3438 46.1467Z" fill="black"/>
</g>
<defs>
<clipPath id="clip0_2314_240768">
<rect width="104.5" height="70.9276" fill="white" transform="translate(0.75 0.214844)"/>
</clipPath>
</defs>
</svg>
