<svg width="40" height="41" viewBox="0 0 40 41" fill="none" xmlns="http://www.w3.org/2000/svg">
<rect y="0.678711" width="40" height="40" rx="20" fill="#F3F5F6"/>
<g clip-path="url(#clip0_6938_5679)">
<mask id="mask0_6938_5679" style="mask-type:luminance" maskUnits="userSpaceOnUse" x="3" y="18" width="33" height="5">
<path d="M35.9401 18.6797H3.99976V22.6797H35.9401V18.6797Z" fill="white"/>
</mask>
<g mask="url(#mask0_6938_5679)">
<path d="M9.57188 18.9461C9.32383 18.7685 9.00833 18.6737 8.68423 18.6794H3.99985V22.6794H5.10381V21.3842H8.68423C9.00706 21.3901 9.32178 21.2978 9.57188 21.1239C9.715 21.0162 9.82861 20.883 9.90465 20.7338C9.98069 20.5846 10.0173 20.423 10.012 20.2604V19.8033C10.0178 19.6416 9.98131 19.4808 9.9052 19.3325C9.82909 19.1843 9.71524 19.0523 9.57188 18.9461ZM8.90801 20.2985C8.90801 20.4382 8.87071 20.4826 8.82595 20.5144C8.75196 20.5588 8.66279 20.5811 8.57234 20.5779H5.10381V19.4858H8.57234C8.66279 19.4826 8.75196 19.5049 8.82595 19.5493C8.87071 19.581 8.90801 19.6255 8.90801 19.7652V20.2985Z" fill="black"/>
<path d="M29.9054 19.486V20.2733H34.4107V21.0797H29.9054V21.8733H34.7017V22.6797H28.8014V18.6797H34.7017V19.486H29.9054Z" fill="black"/>
<path d="M35.5597 22.4697V22.5015H35.4254V22.6729H35.3732V22.5015H35.2389V22.4697H35.5597Z" fill="black"/>
<path d="M35.6192 22.4697L35.7609 22.6348L35.8952 22.4697H35.9399V22.6729H35.8952V22.5396L35.7758 22.6729H35.7385L35.6266 22.5396V22.6729H35.5744V22.4697H35.6192Z" fill="black"/>
<path d="M27.3995 21.873H23.5282L24.9305 20.6793L24.2145 20.0698L21.8648 22.0698L22.5809 22.6793H28.3469L27.3995 21.873Z" fill="black"/>
<path d="M22.4089 18.8829L23.125 19.486H26.5712L25.1763 20.6797L25.8849 21.2892L28.2346 19.2892L27.5185 18.6797H21.1036L19.0374 20.4384L17.5977 18.6797H16.2625L18.2467 21.1114L16.6579 22.4638L13.5698 18.6797H12.6075L9.34787 22.6797H10.6831L11.3395 21.8797H14.8378L15.4942 22.6797H17.9483L22.4089 18.8829ZM11.9959 21.067L13.0849 19.7273L14.174 21.067H11.9959Z" fill="black"/>
</g>
</g>
<defs>
<clipPath id="clip0_6938_5679">
<rect width="32" height="4" fill="white" transform="translate(4 18.6787)"/>
</clipPath>
</defs>
</svg>
