<svg width="123" height="21" viewBox="0 0 123 21" fill="none" xmlns="http://www.w3.org/2000/svg">
<g clip-path="url(#clip0_6905_36442)">
<path d="M10.0001 15.0703L13.4584 17.162C14.0917 17.5453 14.8667 16.9787 14.7001 16.262L13.7834 12.3287L16.8417 9.67868C17.4001 9.19535 17.1001 8.27868 16.3667 8.22035L12.3417 7.87868L10.7667 4.16201C10.4834 3.48701 9.51673 3.48701 9.23339 4.16201L7.65839 7.87035L3.63339 8.21201C2.90006 8.27035 2.60006 9.18701 3.15839 9.67035L6.21673 12.3203L5.30006 16.2537C5.13339 16.9703 5.90839 17.537 6.54173 17.1537L10.0001 15.0703Z" fill="#F8C51B"/>
</g>
<g clip-path="url(#clip1_6905_36442)">
<path d="M30.0001 15.0703L33.4584 17.162C34.0917 17.5453 34.8667 16.9787 34.7001 16.262L33.7834 12.3287L36.8417 9.67868C37.4001 9.19535 37.1001 8.27868 36.3667 8.22035L32.3417 7.87868L30.7667 4.16201C30.4834 3.48701 29.5167 3.48701 29.2334 4.16201L27.6584 7.87035L23.6334 8.21201C22.9001 8.27035 22.6001 9.18701 23.1584 9.67035L26.2167 12.3203L25.3001 16.2537C25.1334 16.9703 25.9084 17.537 26.5417 17.1537L30.0001 15.0703Z" fill="#F8C51B"/>
</g>
<g clip-path="url(#clip2_6905_36442)">
<path d="M50.0001 15.0703L53.4584 17.162C54.0917 17.5453 54.8667 16.9787 54.7001 16.262L53.7834 12.3287L56.8417 9.67868C57.4001 9.19535 57.1001 8.27868 56.3667 8.22035L52.3417 7.87868L50.7667 4.16201C50.4834 3.48701 49.5167 3.48701 49.2334 4.16201L47.6584 7.87035L43.6334 8.21201C42.9001 8.27035 42.6001 9.18701 43.1584 9.67035L46.2167 12.3203L45.3001 16.2537C45.1334 16.9703 45.9084 17.537 46.5417 17.1537L50.0001 15.0703Z" fill="#F8C51B"/>
</g>
<g clip-path="url(#clip3_6905_36442)">
<path d="M70.0001 15.0703L73.4584 17.162C74.0917 17.5453 74.8667 16.9787 74.7001 16.262L73.7834 12.3287L76.8417 9.67868C77.4001 9.19535 77.1001 8.27868 76.3667 8.22035L72.3417 7.87868L70.7667 4.16201C70.4834 3.48701 69.5167 3.48701 69.2334 4.16201L67.6584 7.87035L63.6334 8.21201C62.9001 8.27035 62.6001 9.18701 63.1584 9.67035L66.2167 12.3203L65.3001 16.2537C65.1334 16.9703 65.9084 17.537 66.5417 17.1537L70.0001 15.0703Z" fill="#F8C51B"/>
</g>
<g clip-path="url(#clip4_6905_36442)">
<path d="M90.0001 15.0703L93.4584 17.162C94.0917 17.5453 94.8667 16.9787 94.7001 16.262L93.7834 12.3287L96.8417 9.67868C97.4001 9.19535 97.1001 8.27868 96.3667 8.22035L92.3417 7.87868L90.7667 4.16201C90.4834 3.48701 89.5167 3.48701 89.2334 4.16201L87.6584 7.87035L83.6334 8.21201C82.9001 8.27035 82.6001 9.18701 83.1584 9.67035L86.2167 12.3203L85.3001 16.2537C85.1334 16.9703 85.9084 17.537 86.5417 17.1537L90.0001 15.0703Z" fill="black" fill-opacity="0.12"/>
</g>
<path d="M111.82 15.298C111.286 15.298 110.806 15.1958 110.379 14.9912C109.956 14.7838 109.618 14.4997 109.365 14.1389C109.112 13.7781 108.977 13.3662 108.96 12.9031H110.239C110.27 13.2781 110.436 13.5864 110.737 13.8279C111.039 14.0693 111.399 14.1901 111.82 14.1901C112.155 14.1901 112.452 14.1134 112.71 13.96C112.972 13.8037 113.176 13.5892 113.324 13.3165C113.475 13.0438 113.55 12.7327 113.55 12.3833C113.55 12.0281 113.473 11.7114 113.32 11.433C113.166 11.1546 112.955 10.9358 112.685 10.7767C112.418 10.6176 112.111 10.5367 111.764 10.5338C111.5 10.5338 111.235 10.5793 110.968 10.6702C110.7 10.7611 110.485 10.8804 110.32 11.0281L109.114 10.8492L109.604 6.45144H114.402V7.5807H110.699L110.422 10.0225H110.473C110.644 9.85769 110.869 9.7199 111.151 9.60911C111.435 9.49831 111.739 9.44292 112.063 9.44292C112.594 9.44292 113.067 9.56934 113.482 9.82218C113.899 10.075 114.227 10.4202 114.466 10.8577C114.708 11.2923 114.827 11.7923 114.824 12.3577C114.827 12.923 114.699 13.4273 114.441 13.8705C114.185 14.3137 113.83 14.6631 113.375 14.9188C112.923 15.1716 112.405 15.298 111.82 15.298ZM116.381 15.1787V14.2242L119.334 11.1645C119.649 10.8321 119.909 10.5409 120.113 10.2909C120.321 10.0381 120.476 9.79803 120.578 9.57076C120.68 9.34348 120.731 9.10201 120.731 8.84632C120.731 8.55655 120.663 8.30655 120.527 8.09632C120.39 7.88326 120.204 7.7199 119.969 7.60627C119.733 7.48979 119.467 7.43155 119.172 7.43155C118.859 7.43155 118.586 7.49547 118.354 7.62331C118.121 7.75115 117.942 7.93155 117.817 8.16451C117.692 8.39746 117.629 8.67019 117.629 8.98269H116.372C116.372 8.45144 116.494 7.98695 116.738 7.58922C116.983 7.19149 117.318 6.88326 117.744 6.66451C118.17 6.44292 118.655 6.33212 119.197 6.33212C119.746 6.33212 120.229 6.44149 120.646 6.66024C121.067 6.87615 121.395 7.17161 121.631 7.54661C121.866 7.91877 121.984 8.33922 121.984 8.80797C121.984 9.13184 121.923 9.4486 121.801 9.75826C121.682 10.0679 121.473 10.4131 121.175 10.7938C120.876 11.1716 120.461 11.6304 119.93 12.1702L118.196 13.9855V14.0494H122.125V15.1787H116.381Z" fill="#1A2024"/>
<defs>
<clipPath id="clip0_6905_36442">
<rect width="20" height="20" fill="white" transform="translate(0 0.678711)"/>
</clipPath>
<clipPath id="clip1_6905_36442">
<rect width="20" height="20" fill="white" transform="translate(20 0.678711)"/>
</clipPath>
<clipPath id="clip2_6905_36442">
<rect width="20" height="20" fill="white" transform="translate(40 0.678711)"/>
</clipPath>
<clipPath id="clip3_6905_36442">
<rect width="20" height="20" fill="white" transform="translate(60 0.678711)"/>
</clipPath>
<clipPath id="clip4_6905_36442">
<rect width="20" height="20" fill="white" transform="translate(80 0.678711)"/>
</clipPath>
</defs>
</svg>
