<svg width="40" height="41" viewBox="0 0 40 41" fill="none" xmlns="http://www.w3.org/2000/svg">
<rect y="0.678711" width="40" height="40" rx="20" fill="#F3F5F6"/>
<path d="M18.4217 15.3068C15.8936 15.3536 14.4092 15.4693 13.9436 15.6568C13.5217 15.8286 13.1686 16.1505 12.9592 16.5474C12.6874 17.063 12.5436 18.1943 12.5092 20.0849C12.4842 21.5943 12.5655 22.9661 12.7374 23.8349C12.9217 24.7818 13.4311 25.3224 14.3092 25.5068C15.1092 25.6755 17.2311 25.7755 20.0155 25.7724C22.8592 25.7724 24.8842 25.6786 25.7342 25.5068C26.0124 25.4505 26.4061 25.2536 26.6124 25.0724C26.828 24.8818 27.0467 24.5536 27.1374 24.2849C27.3874 23.5474 27.5405 21.4005 27.4717 19.6193C27.378 17.2005 27.1811 16.4411 26.5155 15.938C26.2092 15.7068 25.9967 15.6224 25.5217 15.538C24.9342 15.438 23.5217 15.3505 22.0311 15.3193C20.2874 15.2849 19.6624 15.2818 18.4217 15.3068ZM20.4374 19.4068C21.4905 20.013 22.3499 20.5224 22.3499 20.538C22.3467 20.563 18.5499 22.7724 18.5092 22.7724C18.5061 22.7724 18.4999 21.7661 18.4999 20.538C18.4999 19.3099 18.5061 18.3036 18.5124 18.3036C18.5186 18.3036 19.3842 18.8005 20.4374 19.4068Z" fill="#1A2024"/>
</svg>
