<svg width="40" height="41" viewBox="0 0 40 41" fill="none" xmlns="http://www.w3.org/2000/svg">
<rect y="0.678711" width="40" height="40" rx="20" fill="#F3F5F6"/>
<g clip-path="url(#clip0_6938_5706)">
<path d="M19.487 12.7133C17.9776 12.9227 16.6901 13.9758 16.2182 15.3914C16.062 15.8664 16.0182 16.1477 16.0182 16.6789C16.0182 17.2133 16.062 17.4914 16.2214 17.9758C16.537 18.9258 17.312 19.807 18.2339 20.2664C18.7745 20.5352 19.3401 20.6602 19.9995 20.6602C20.537 20.6602 20.8214 20.6164 21.2964 20.4539C22.4432 20.0633 23.3901 19.1164 23.7745 17.9758C23.937 17.4977 23.9807 17.2164 23.9807 16.6789C23.9807 16.3352 23.9651 16.1164 23.9276 15.9289C23.7495 15.0883 23.3682 14.3914 22.7682 13.8102C22.1995 13.2633 21.5464 12.9164 20.7651 12.757C20.4651 12.6945 19.7839 12.6695 19.487 12.7133ZM20.4182 14.7258C21.1651 14.882 21.7964 15.5133 21.9526 16.2602C22.2526 17.6695 20.9901 18.932 19.5807 18.632C19.0089 18.5102 18.4807 18.1008 18.2245 17.582C17.9276 16.9789 17.9276 16.3789 18.2245 15.7758C18.6182 14.9758 19.537 14.5383 20.4182 14.7258Z" fill="#1A2024"/>
<path d="M15.1028 20.3287C14.6496 20.4912 14.3778 20.8943 14.4153 21.3506C14.4371 21.6318 14.5371 21.81 14.8278 22.0943C15.9121 23.1568 17.3184 23.8318 19.0121 24.1006L19.134 24.1193L17.6621 25.5943C15.9934 27.2662 16.0153 27.2381 16.0153 27.6787C16.0153 28.2443 16.434 28.6631 16.9996 28.6631C17.4309 28.6631 17.4403 28.6537 18.8059 27.2943L19.9996 26.1037L21.1965 27.2943C22.559 28.6537 22.5684 28.6631 22.9996 28.6631C23.5653 28.6631 23.984 28.2443 23.984 27.6787C23.984 27.2381 24.0059 27.2662 22.3371 25.5943L20.8653 24.1193L20.9871 24.1006C22.434 23.8693 23.5871 23.385 24.6403 22.5631C25.0403 22.2506 25.409 21.8787 25.4996 21.6943C25.6121 21.4662 25.6121 21.11 25.4965 20.8631C25.3246 20.4943 24.9965 20.2881 24.5934 20.2881C24.284 20.2912 24.0934 20.3818 23.7653 20.6787C22.7715 21.5787 21.7184 22.0412 20.409 22.1506C19.4278 22.2318 18.434 22.035 17.5153 21.5693C17.0496 21.335 16.6903 21.0881 16.2746 20.7131C16.1153 20.5693 15.9121 20.4193 15.8215 20.3787C15.5996 20.2725 15.3121 20.2537 15.1028 20.3287Z" fill="#1A2024"/>
</g>
<defs>
<clipPath id="clip0_6938_5706">
<rect width="16" height="16" fill="white" transform="translate(12 12.6787)"/>
</clipPath>
</defs>
</svg>
