<svg width="40" height="41" viewBox="0 0 40 41" fill="none" xmlns="http://www.w3.org/2000/svg">
<rect y="0.678711" width="40" height="40" rx="20" fill="#F3F5F6"/>
<path d="M20.0007 12.6782C17.8281 12.6782 17.5554 12.6877 16.702 12.7266C15.8504 12.7656 15.269 12.9004 14.7604 13.0982C14.2342 13.3026 13.7879 13.5759 13.3432 14.0208C12.8982 14.4655 12.6248 14.9118 12.4198 15.4378C12.2215 15.9467 12.0865 16.5282 12.0482 17.3796C12.01 18.2329 12 18.5058 12 20.6785C12 22.8513 12.0097 23.1231 12.0483 23.9765C12.0875 24.8282 12.2223 25.4096 12.42 25.9183C12.6245 26.4444 12.8978 26.8908 13.3427 27.3355C13.7872 27.7805 14.2335 28.0545 14.7594 28.2589C15.2684 28.4567 15.8499 28.5915 16.7014 28.6305C17.5547 28.6694 17.8272 28.6789 19.9998 28.6789C22.1726 28.6789 22.4444 28.6694 23.2978 28.6305C24.1495 28.5915 24.7315 28.4567 25.2405 28.2589C25.7665 28.0545 26.2121 27.7805 26.6567 27.3355C27.1017 26.8908 27.375 26.4444 27.58 25.9184C27.7767 25.4096 27.9117 24.828 27.9517 23.9767C27.99 23.1233 28 22.8513 28 20.6785C28 18.5058 27.99 18.2331 27.9517 17.3797C27.9117 16.528 27.7767 15.9467 27.58 15.438C27.375 14.9118 27.1017 14.4655 26.6567 14.0208C26.2116 13.5758 25.7666 13.3024 25.24 13.0982C24.73 12.9004 24.1483 12.7656 23.2966 12.7266C22.4433 12.6877 22.1716 12.6782 19.9982 12.6782H20.0007ZM19.2831 14.1199C19.4961 14.1196 19.7337 14.1199 20.0007 14.1199C22.1368 14.1199 22.3899 14.1276 23.2334 14.1659C24.0135 14.2016 24.4368 14.332 24.7188 14.4415C25.0921 14.5865 25.3583 14.7598 25.6381 15.0398C25.9181 15.3198 26.0915 15.5865 26.2368 15.9599C26.3463 16.2415 26.4768 16.6649 26.5123 17.4449C26.5507 18.2883 26.559 18.5416 26.559 20.6767C26.559 22.8118 26.5507 23.0651 26.5123 23.9085C26.4767 24.6885 26.3463 25.1119 26.2368 25.3936C26.0918 25.7669 25.9181 26.0328 25.6381 26.3126C25.3581 26.5926 25.0923 26.766 24.7188 26.911C24.4371 27.021 24.0135 27.151 23.2334 27.1866C22.3901 27.225 22.1368 27.2333 20.0007 27.2333C17.8646 27.2333 17.6114 27.225 16.768 27.1866C15.988 27.1506 15.5647 27.0203 15.2825 26.9108C14.9092 26.7658 14.6425 26.5925 14.3625 26.3124C14.0825 26.0324 13.9092 25.7664 13.7639 25.3929C13.6544 25.1112 13.5238 24.6879 13.4883 23.9078C13.45 23.0645 13.4423 22.8111 13.4423 20.6747C13.4423 18.5383 13.45 18.2863 13.4883 17.4429C13.524 16.6629 13.6544 16.2395 13.7639 15.9575C13.9089 15.5842 14.0825 15.3175 14.3625 15.0375C14.6425 14.7575 14.9092 14.5841 15.2825 14.4388C15.5645 14.3288 15.988 14.1988 16.768 14.1629C17.5061 14.1296 17.7921 14.1196 19.2831 14.1179V14.1199ZM24.2711 15.4483C23.7411 15.4483 23.3111 15.8779 23.3111 16.408C23.3111 16.9381 23.7411 17.3681 24.2711 17.3681C24.8011 17.3681 25.2311 16.9381 25.2311 16.408C25.2311 15.878 24.8011 15.448 24.2711 15.448V15.4483ZM20.0007 16.57C17.7319 16.57 15.8924 18.4096 15.8924 20.6785C15.8924 22.9475 17.7319 24.7862 20.0007 24.7862C22.2696 24.7862 24.1085 22.9475 24.1085 20.6785C24.1085 18.4096 22.2694 16.57 20.0006 16.57H20.0007ZM20.0007 18.0118C21.4734 18.0118 22.6674 19.2057 22.6674 20.6785C22.6674 22.1513 21.4734 23.3453 20.0007 23.3453C18.5279 23.3453 17.3341 22.1513 17.3341 20.6785C17.3341 19.2057 18.5279 18.0118 20.0007 18.0118Z" fill="#1A2024"/>
</svg>
