<svg width="40" height="41" viewBox="0 0 40 41" fill="none" xmlns="http://www.w3.org/2000/svg">
<rect y="0.678711" width="40" height="40" rx="20" fill="#F3F5F6"/>
<path d="M19.8812 16.6475C15.7 18.26 12.2406 19.6038 12.2 19.6319C12.0969 19.7006 12 19.86 12 19.9694C12 20.1006 12.075 20.2569 12.175 20.3256C12.225 20.36 13.0875 20.6944 14.0938 21.0694C15.1 21.4413 15.9375 21.7631 15.9562 21.785C15.975 21.8038 16.3031 22.8319 16.6844 24.0694C17.0687 25.3069 17.4031 26.3663 17.4313 26.4256C17.4563 26.4819 17.5219 26.5569 17.575 26.5881C17.6844 26.6538 17.9062 26.6663 18.0094 26.61C18.0469 26.5913 18.525 26.2069 19.0781 25.7569C20.2781 24.7756 20.2406 24.8069 20.4031 24.7694C20.6594 24.7131 20.7094 24.7413 22.2219 25.8381C24.8719 27.7631 24.6813 27.6319 24.8469 27.6319C25.0219 27.6319 25.1438 27.5538 25.2281 27.3944C25.3094 27.235 28.0094 14.1944 27.9875 14.0663C27.95 13.8756 27.75 13.7069 27.5563 13.71C27.5156 13.71 24.0625 15.0319 19.8812 16.6475ZM24.525 16.6225C24.5469 16.6444 24.5625 16.6819 24.5625 16.71C24.5625 16.7381 23.4125 17.8288 22.0094 19.135C18.5938 22.3069 18.4563 22.4381 18.3656 22.5913C18.2469 22.7975 18.2 23.0038 18.0906 23.8194C18.0344 24.2475 17.975 24.6006 17.95 24.6381C17.9031 24.7131 17.775 24.735 17.6937 24.6819C17.6688 24.6663 17.4656 24.0163 17.2406 23.2381C16.8094 21.7319 16.7844 21.5975 16.8875 21.36C16.9156 21.2944 16.9844 21.2006 17.0406 21.1475C17.1656 21.0288 24.3719 16.585 24.4406 16.585C24.4656 16.585 24.5031 16.6006 24.525 16.6225Z" fill="#1A2024"/>
</svg>
