<svg width="240" height="46" viewBox="0 0 240 46" fill="none" xmlns="http://www.w3.org/2000/svg">
<path d="M30 17V16.8498C30 16.5333 30 16.3751 30.0242 16.2209C30.0457 16.084 30.0814 15.9497 30.1306 15.8202C30.1861 15.6743 30.2646 15.5369 30.4216 15.2622L34 9M30 17C30 19.2091 31.7909 21 34 21C36.2091 21 38 19.2091 38 17M30 17V16.8C30 16.52 30 16.38 30.0545 16.273C30.1024 16.1789 30.1789 16.1024 30.273 16.0545C30.38 16 30.52 16 30.8 16H37.2C37.48 16 37.62 16 37.727 16.0545C37.8211 16.1024 37.8976 16.1789 37.9455 16.273C38 16.38 38 16.52 38 16.8V17M34 9L37.5784 15.2622C37.7354 15.5369 37.8139 15.6743 37.8694 15.8202C37.9186 15.9497 37.9543 16.084 37.9758 16.2209C38 16.3751 38 16.5333 38 16.8498V17M34 9L46 7M42 15V14.8498C42 14.5333 42 14.3751 42.0242 14.2209C42.0457 14.084 42.0814 13.9497 42.1306 13.8202C42.1861 13.6743 42.2646 13.5369 42.4216 13.2622L46 7M42 15C42 17.2091 43.7909 19 46 19C48.2091 19 50 17.2091 50 15M42 15V14.8C42 14.52 42 14.38 42.0545 14.273C42.1024 14.1789 42.1789 14.1024 42.273 14.0545C42.38 14 42.52 14 42.8 14H49.2C49.48 14 49.62 14 49.727 14.0545C49.8211 14.1024 49.8976 14.1789 49.9455 14.273C50 14.38 50 14.52 50 14.8V15M46 7L49.5784 13.2622C49.7354 13.5369 49.8139 13.6743 49.8694 13.8202C49.9186 13.9497 49.9543 14.084 49.9758 14.2209C50 14.3751 50 14.5333 50 14.8498V15M40 3V8" stroke="black" stroke-width="1.6" stroke-linecap="round" stroke-linejoin="round"/>
<path d="M15.5795 36H14.5227C14.4602 35.696 14.3509 35.429 14.1946 35.1989C14.0412 34.9688 13.8537 34.7756 13.6321 34.6193C13.4134 34.4602 13.1705 34.3409 12.9034 34.2614C12.6364 34.1818 12.358 34.142 12.0682 34.142C11.5398 34.142 11.0611 34.2756 10.6321 34.5426C10.206 34.8097 9.86648 35.2031 9.61364 35.723C9.36364 36.2429 9.23864 36.8807 9.23864 37.6364C9.23864 38.392 9.36364 39.0298 9.61364 39.5497C9.86648 40.0696 10.206 40.4631 10.6321 40.7301C11.0611 40.9972 11.5398 41.1307 12.0682 41.1307C12.358 41.1307 12.6364 41.0909 12.9034 41.0114C13.1705 40.9318 13.4134 40.8139 13.6321 40.6577C13.8537 40.4986 14.0412 40.304 14.1946 40.0739C14.3509 39.8409 14.4602 39.5739 14.5227 39.2727H15.5795C15.5 39.7187 15.3551 40.1179 15.1449 40.4702C14.9347 40.8224 14.6733 41.1222 14.3608 41.3693C14.0483 41.6136 13.6974 41.7997 13.3082 41.9276C12.9219 42.0554 12.5085 42.1193 12.0682 42.1193C11.3239 42.1193 10.6619 41.9375 10.0824 41.5739C9.50284 41.2102 9.04688 40.6932 8.71449 40.0227C8.3821 39.3523 8.21591 38.5568 8.21591 37.6364C8.21591 36.7159 8.3821 35.9205 8.71449 35.25C9.04688 34.5795 9.50284 34.0625 10.0824 33.6989C10.6619 33.3352 11.3239 33.1534 12.0682 33.1534C12.5085 33.1534 12.9219 33.2173 13.3082 33.3452C13.6974 33.473 14.0483 33.6605 14.3608 33.9077C14.6733 34.152 14.9347 34.4503 15.1449 34.8026C15.3551 35.152 15.5 35.5511 15.5795 36ZM17.1509 44.4545V35.4545H18.1225V36.4943H18.2418C18.3157 36.3807 18.418 36.2358 18.5487 36.0597C18.6822 35.8807 18.8725 35.7216 19.1197 35.5824C19.3697 35.4403 19.7077 35.3693 20.1339 35.3693C20.685 35.3693 21.1708 35.5071 21.5913 35.7827C22.0117 36.0582 22.3398 36.4489 22.5756 36.9545C22.8114 37.4602 22.9293 38.0568 22.9293 38.7443C22.9293 39.4375 22.8114 40.0384 22.5756 40.5469C22.3398 41.0526 22.0131 41.4446 21.5955 41.723C21.1779 41.9986 20.6964 42.1364 20.1509 42.1364C19.7305 42.1364 19.3938 42.0668 19.141 41.9276C18.8881 41.7855 18.6935 41.625 18.5572 41.446C18.4208 41.2642 18.3157 41.1136 18.2418 40.9943H18.1566V44.4545H17.1509ZM18.1396 38.7273C18.1396 39.2216 18.212 39.6577 18.3569 40.0355C18.5018 40.4105 18.7134 40.7045 18.9918 40.9176C19.2702 41.1278 19.6112 41.233 20.0146 41.233C20.435 41.233 20.7859 41.1222 21.0671 40.9006C21.3512 40.6761 21.5643 40.375 21.7063 39.9972C21.8512 39.6165 21.9237 39.1932 21.9237 38.7273C21.9237 38.267 21.8526 37.8523 21.7106 37.483C21.5714 37.1108 21.3597 36.8168 21.0756 36.6009C20.7944 36.3821 20.4407 36.2727 20.0146 36.2727C19.6055 36.2727 19.2617 36.3764 18.9833 36.5838C18.7049 36.7884 18.4947 37.0753 18.3526 37.4446C18.2106 37.8111 18.1396 38.2386 18.1396 38.7273ZM26.3896 42.1534C25.9748 42.1534 25.5984 42.0753 25.2603 41.919C24.9222 41.7599 24.6538 41.5312 24.4549 41.233C24.256 40.9318 24.1566 40.5682 24.1566 40.142C24.1566 39.767 24.2305 39.4631 24.3782 39.2301C24.5259 38.9943 24.7234 38.8097 24.9705 38.6761C25.2177 38.5426 25.4904 38.4432 25.7887 38.3778C26.0898 38.3097 26.3924 38.2557 26.6964 38.2159C27.0941 38.1648 27.4165 38.1264 27.6637 38.1009C27.9137 38.0724 28.0955 38.0256 28.2092 37.9602C28.3256 37.8949 28.3839 37.7812 28.3839 37.6193V37.5852C28.3839 37.1648 28.2688 36.8381 28.0387 36.6051C27.8114 36.3722 27.4663 36.2557 27.0032 36.2557C26.5231 36.2557 26.1467 36.3608 25.8739 36.571C25.6012 36.7812 25.4094 37.0057 25.2987 37.2443L24.3441 36.9034C24.5146 36.5057 24.7418 36.196 25.0259 35.9744C25.3129 35.75 25.6254 35.5937 25.9634 35.5057C26.3043 35.4148 26.6396 35.3693 26.9691 35.3693C27.1793 35.3693 27.4208 35.3949 27.6935 35.446C27.9691 35.4943 28.2347 35.5952 28.4904 35.7486C28.7489 35.902 28.9634 36.1335 29.1339 36.4432C29.3043 36.7528 29.3896 37.1676 29.3896 37.6875V42H28.3839V41.1136H28.3327C28.2646 41.2557 28.1509 41.4077 27.9918 41.5696C27.8327 41.7315 27.6211 41.8693 27.3569 41.983C27.0927 42.0966 26.7702 42.1534 26.3896 42.1534ZM26.543 41.25C26.9407 41.25 27.2759 41.1719 27.5487 41.0156C27.8242 40.8594 28.0316 40.6577 28.1708 40.4105C28.3129 40.1634 28.3839 39.9034 28.3839 39.6307V38.7102C28.3413 38.7614 28.2475 38.8082 28.1026 38.8509C27.9606 38.8906 27.7958 38.9261 27.6083 38.9574C27.4237 38.9858 27.2433 39.0114 27.0671 39.0341C26.8938 39.054 26.7532 39.071 26.6452 39.0852C26.3839 39.1193 26.1396 39.1747 25.9123 39.2514C25.6879 39.3253 25.506 39.4375 25.3668 39.5881C25.2305 39.7358 25.1623 39.9375 25.1623 40.1932C25.1623 40.5426 25.2915 40.8068 25.5501 40.9858C25.8114 41.1619 26.1424 41.25 26.543 41.25ZM31.2251 42V35.4545H33.9013C34.6058 35.4545 35.1655 35.6136 35.5803 35.9318C35.995 36.25 36.2024 36.6705 36.2024 37.1932C36.2024 37.5909 36.0845 37.8991 35.8487 38.1179C35.6129 38.3338 35.3104 38.4801 34.9411 38.5568C35.1825 38.5909 35.4169 38.6761 35.6442 38.8125C35.8743 38.9489 36.0646 39.1364 36.2152 39.375C36.3658 39.6108 36.4411 39.9006 36.4411 40.2443C36.4411 40.5795 36.3558 40.8793 36.1854 41.1435C36.0149 41.4077 35.7706 41.6165 35.4524 41.7699C35.1342 41.9233 34.7536 42 34.3104 42H31.2251ZM32.1797 41.0795H34.3104C34.657 41.0795 34.9283 40.9972 35.1243 40.8324C35.3203 40.6676 35.4183 40.4432 35.4183 40.1591C35.4183 39.821 35.3203 39.5554 35.1243 39.3622C34.9283 39.1662 34.657 39.0682 34.3104 39.0682H32.1797V41.0795ZM32.1797 38.1989H33.9013C34.1712 38.1989 34.4027 38.1619 34.5959 38.0881C34.7891 38.0114 34.9368 37.9034 35.0391 37.7642C35.1442 37.6222 35.1967 37.4545 35.1967 37.2614C35.1967 36.9858 35.0817 36.7699 34.8516 36.6136C34.6214 36.4545 34.3047 36.375 33.9013 36.375H32.1797V38.1989ZM42.3441 38.267V39.2045H38.7305V38.267H42.3441ZM38.9691 35.4545V42H37.9634V35.4545H38.9691ZM43.1112 35.4545V42H42.1055V35.4545H43.1112ZM47.6921 42.1364C47.0614 42.1364 46.5174 41.9972 46.06 41.7188C45.6055 41.4375 45.2546 41.0455 45.0075 40.5426C44.7631 40.0369 44.641 39.4489 44.641 38.7784C44.641 38.108 44.7631 37.517 45.0075 37.0057C45.2546 36.4915 45.5984 36.0909 46.0387 35.804C46.4819 35.5142 46.9989 35.3693 47.5898 35.3693C47.9308 35.3693 48.2674 35.4261 48.5998 35.5398C48.9322 35.6534 49.2347 35.8381 49.5075 36.0938C49.7802 36.3466 49.9975 36.6818 50.1594 37.0994C50.3214 37.517 50.4023 38.0312 50.4023 38.642V39.0682H45.3569V38.1989H49.3796C49.3796 37.8295 49.3058 37.5 49.158 37.2102C49.0131 36.9205 48.8058 36.6918 48.5359 36.5241C48.2688 36.3565 47.9535 36.2727 47.5898 36.2727C47.1893 36.2727 46.8427 36.3722 46.5501 36.571C46.2603 36.767 46.0373 37.0227 45.881 37.3381C45.7248 37.6534 45.6467 37.9915 45.6467 38.3523V38.9318C45.6467 39.4261 45.7319 39.8452 45.9023 40.1889C46.0756 40.5298 46.3157 40.7898 46.6225 40.9688C46.9293 41.1449 47.2859 41.233 47.6921 41.233C47.9563 41.233 48.195 41.196 48.408 41.1222C48.6239 41.0455 48.81 40.9318 48.9663 40.7812C49.1225 40.6278 49.2433 40.4375 49.3285 40.2102L50.3001 40.483C50.1978 40.8125 50.0259 41.1023 49.7844 41.3523C49.543 41.5994 49.2447 41.7926 48.8896 41.9318C48.5344 42.0682 48.1353 42.1364 47.6921 42.1364ZM56.3129 38.267V39.2045H52.6992V38.267H56.3129ZM52.9379 35.4545V42H51.9322V35.4545H52.9379ZM57.0799 35.4545V42H56.0742V35.4545H57.0799ZM59.9222 40.517L63.0756 35.4545H64.2347V42H63.229V36.9375L60.0927 42H58.9165V35.4545H59.9222V40.517ZM68.821 42.1364C68.1903 42.1364 67.6463 41.9972 67.1889 41.7188C66.7344 41.4375 66.3835 41.0455 66.1364 40.5426C65.892 40.0369 65.7699 39.4489 65.7699 38.7784C65.7699 38.108 65.892 37.517 66.1364 37.0057C66.3835 36.4915 66.7273 36.0909 67.1676 35.804C67.6108 35.5142 68.1278 35.3693 68.7188 35.3693C69.0597 35.3693 69.3963 35.4261 69.7287 35.5398C70.0611 35.6534 70.3636 35.8381 70.6364 36.0938C70.9091 36.3466 71.1264 36.6818 71.2884 37.0994C71.4503 37.517 71.5312 38.0312 71.5312 38.642V39.0682H66.4858V38.1989H70.5085C70.5085 37.8295 70.4347 37.5 70.2869 37.2102C70.142 36.9205 69.9347 36.6918 69.6648 36.5241C69.3977 36.3565 69.0824 36.2727 68.7188 36.2727C68.3182 36.2727 67.9716 36.3722 67.679 36.571C67.3892 36.767 67.1662 37.0227 67.0099 37.3381C66.8537 37.6534 66.7756 37.9915 66.7756 38.3523V38.9318C66.7756 39.4261 66.8608 39.8452 67.0312 40.1889C67.2045 40.5298 67.4446 40.7898 67.7514 40.9688C68.0582 41.1449 68.4148 41.233 68.821 41.233C69.0852 41.233 69.3239 41.196 69.5369 41.1222C69.7528 41.0455 69.9389 40.9318 70.0952 40.7812C70.2514 40.6278 70.3722 40.4375 70.4574 40.2102L71.429 40.483C71.3267 40.8125 71.1548 41.1023 70.9134 41.3523C70.6719 41.5994 70.3736 41.7926 70.0185 41.9318C69.6634 42.0682 69.2642 42.1364 68.821 42.1364Z" fill="black"/>
<path fill-rule="evenodd" clip-rule="evenodd" d="M119.993 5.13581C117.994 2.7984 114.66 2.16964 112.155 4.31001C109.65 6.45038 109.297 10.029 111.264 12.5604C112.9 14.6651 117.85 19.1041 119.472 20.5408C119.654 20.7016 119.744 20.7819 119.85 20.8135C119.943 20.8411 120.044 20.8411 120.136 20.8135C120.242 20.7819 120.333 20.7016 120.514 20.5408C122.137 19.1041 127.086 14.6651 128.722 12.5604C130.689 10.029 130.38 6.42787 127.832 4.31001C125.283 2.19216 121.993 2.7984 119.993 5.13581Z" stroke="black" stroke-width="2" stroke-linecap="round" stroke-linejoin="round"/>
<path d="M88.5568 33.2727H89.5966V40.142H89.6818L94.4545 33.2727H95.4773V42H94.4205V35.1477H94.3352L89.5795 42H88.5568V33.2727ZM97.0465 40.3295H98.1204C98.1431 40.625 98.2766 40.8494 98.521 41.0028C98.7681 41.1562 99.0891 41.233 99.484 41.233C99.8874 41.233 100.233 41.1506 100.52 40.9858C100.806 40.8182 100.95 40.5483 100.95 40.1761C100.95 39.9574 100.896 39.767 100.788 39.6051C100.68 39.4403 100.528 39.3125 100.332 39.2216C100.136 39.1307 99.9045 39.0852 99.6374 39.0852H98.5124V38.1818H99.6374C100.038 38.1818 100.333 38.0909 100.524 37.9091C100.717 37.7273 100.814 37.5 100.814 37.2273C100.814 36.9347 100.71 36.7003 100.502 36.5241C100.295 36.3452 100.001 36.2557 99.6204 36.2557C99.2369 36.2557 98.9173 36.3423 98.6616 36.5156C98.4059 36.6861 98.271 36.9062 98.2567 37.1761H97.1999C97.2113 36.8239 97.3192 36.5128 97.5238 36.2429C97.7283 35.9702 98.0067 35.7571 98.359 35.6037C98.7113 35.4474 99.1147 35.3693 99.5692 35.3693C100.029 35.3693 100.429 35.4503 100.767 35.6122C101.108 35.7713 101.37 35.9886 101.555 36.2642C101.743 36.5369 101.836 36.8466 101.836 37.1932C101.836 37.5625 101.733 37.8608 101.525 38.0881C101.318 38.3153 101.058 38.4773 100.745 38.5739V38.642C100.993 38.6591 101.207 38.7386 101.389 38.8807C101.574 39.0199 101.717 39.2031 101.819 39.4304C101.922 39.6548 101.973 39.9034 101.973 40.1761C101.973 40.5739 101.866 40.9205 101.653 41.2159C101.44 41.5085 101.147 41.7358 100.775 41.8977C100.403 42.0568 99.9783 42.1364 99.5011 42.1364C99.038 42.1364 98.6232 42.0611 98.2567 41.9105C97.8903 41.7571 97.5991 41.5455 97.3832 41.2756C97.1701 41.0028 97.0579 40.6875 97.0465 40.3295ZM108.243 33L108.755 33.6136C108.556 33.8068 108.326 33.9418 108.064 34.0185C107.803 34.0952 107.507 34.142 107.178 34.1591C106.848 34.1761 106.482 34.1932 106.078 34.2102C105.624 34.2273 105.248 34.3381 104.949 34.5426C104.651 34.7472 104.421 35.0426 104.259 35.429C104.097 35.8153 103.993 36.2898 103.948 36.8523H104.033C104.255 36.4432 104.561 36.142 104.953 35.9489C105.346 35.7557 105.766 35.6591 106.215 35.6591C106.726 35.6591 107.186 35.7784 107.596 36.017C108.005 36.2557 108.328 36.6094 108.567 37.0781C108.806 37.5469 108.925 38.125 108.925 38.8125C108.925 39.4972 108.803 40.0881 108.559 40.5852C108.317 41.0824 107.978 41.4659 107.54 41.7358C107.105 42.0028 106.596 42.1364 106.01 42.1364C105.425 42.1364 104.912 41.9986 104.472 41.723C104.032 41.4446 103.689 41.0327 103.445 40.4872C103.201 39.9389 103.078 39.2614 103.078 38.4545V37.7557C103.078 36.2983 103.326 35.1932 103.82 34.4403C104.317 33.6875 105.064 33.2983 106.061 33.2727C106.414 33.2614 106.728 33.2585 107.003 33.2642C107.279 33.2699 107.519 33.2571 107.723 33.2259C107.928 33.1946 108.101 33.1193 108.243 33ZM106.01 41.233C106.405 41.233 106.745 41.1335 107.029 40.9347C107.316 40.7358 107.536 40.456 107.689 40.0952C107.843 39.7315 107.919 39.304 107.919 38.8125C107.919 38.3352 107.841 37.929 107.685 37.5938C107.532 37.2585 107.311 37.0028 107.025 36.8267C106.738 36.6506 106.394 36.5625 105.993 36.5625C105.701 36.5625 105.438 36.6122 105.205 36.7116C104.972 36.8111 104.773 36.9574 104.608 37.1506C104.444 37.3437 104.316 37.5795 104.225 37.858C104.137 38.1364 104.09 38.4545 104.084 38.8125C104.084 39.5455 104.256 40.1321 104.6 40.5724C104.944 41.0128 105.414 41.233 106.01 41.233ZM110.463 44.4545V35.4545H111.435V36.4943H111.554C111.628 36.3807 111.73 36.2358 111.861 36.0597C111.995 35.8807 112.185 35.7216 112.432 35.5824C112.682 35.4403 113.02 35.3693 113.446 35.3693C113.998 35.3693 114.483 35.5071 114.904 35.7827C115.324 36.0582 115.652 36.4489 115.888 36.9545C116.124 37.4602 116.242 38.0568 116.242 38.7443C116.242 39.4375 116.124 40.0384 115.888 40.5469C115.652 41.0526 115.326 41.4446 114.908 41.723C114.49 41.9986 114.009 42.1364 113.463 42.1364C113.043 42.1364 112.706 42.0668 112.453 41.9276C112.201 41.7855 112.006 41.625 111.87 41.446C111.733 41.2642 111.628 41.1136 111.554 40.9943H111.469V44.4545H110.463ZM111.452 38.7273C111.452 39.2216 111.525 39.6577 111.669 40.0355C111.814 40.4105 112.026 40.7045 112.304 40.9176C112.583 41.1278 112.924 41.233 113.327 41.233C113.748 41.233 114.098 41.1222 114.38 40.9006C114.664 40.6761 114.877 40.375 115.019 39.9972C115.164 39.6165 115.236 39.1932 115.236 38.7273C115.236 38.267 115.165 37.8523 115.023 37.483C114.884 37.1108 114.672 36.8168 114.388 36.6009C114.107 36.3821 113.753 36.2727 113.327 36.2727C112.918 36.2727 112.574 36.3764 112.296 36.5838C112.017 36.7884 111.807 37.0753 111.665 37.4446C111.523 37.8111 111.452 38.2386 111.452 38.7273ZM119.702 42.1534C119.287 42.1534 118.911 42.0753 118.573 41.919C118.235 41.7599 117.966 41.5312 117.767 41.233C117.569 40.9318 117.469 40.5682 117.469 40.142C117.469 39.767 117.543 39.4631 117.691 39.2301C117.838 38.9943 118.036 38.8097 118.283 38.6761C118.53 38.5426 118.803 38.4432 119.101 38.3778C119.402 38.3097 119.705 38.2557 120.009 38.2159C120.407 38.1648 120.729 38.1264 120.976 38.1009C121.226 38.0724 121.408 38.0256 121.522 37.9602C121.638 37.8949 121.696 37.7812 121.696 37.6193V37.5852C121.696 37.1648 121.581 36.8381 121.351 36.6051C121.124 36.3722 120.779 36.2557 120.316 36.2557C119.836 36.2557 119.459 36.3608 119.186 36.571C118.914 36.7812 118.722 37.0057 118.611 37.2443L117.657 36.9034C117.827 36.5057 118.054 36.196 118.338 35.9744C118.625 35.75 118.938 35.5937 119.276 35.5057C119.617 35.4148 119.952 35.3693 120.282 35.3693C120.492 35.3693 120.733 35.3949 121.006 35.446C121.282 35.4943 121.547 35.5952 121.803 35.7486C122.061 35.902 122.276 36.1335 122.446 36.4432C122.617 36.7528 122.702 37.1676 122.702 37.6875V42H121.696V41.1136H121.645C121.577 41.2557 121.463 41.4077 121.304 41.5696C121.145 41.7315 120.934 41.8693 120.669 41.983C120.405 42.0966 120.083 42.1534 119.702 42.1534ZM119.855 41.25C120.253 41.25 120.588 41.1719 120.861 41.0156C121.137 40.8594 121.344 40.6577 121.483 40.4105C121.625 40.1634 121.696 39.9034 121.696 39.6307V38.7102C121.654 38.7614 121.56 38.8082 121.415 38.8509C121.273 38.8906 121.108 38.9261 120.921 38.9574C120.736 38.9858 120.556 39.0114 120.38 39.0341C120.206 39.054 120.066 39.071 119.958 39.0852C119.696 39.1193 119.452 39.1747 119.225 39.2514C119 39.3253 118.819 39.4375 118.679 39.5881C118.543 39.7358 118.475 39.9375 118.475 40.1932C118.475 40.5426 118.604 40.8068 118.863 40.9858C119.124 41.1619 119.455 41.25 119.855 41.25ZM128.918 38.267V39.2045H125.305V38.267H128.918ZM125.543 35.4545V42H124.538V35.4545H125.543ZM129.685 35.4545V42H128.68V35.4545H129.685ZM135.903 38.267V39.2045H132.289V38.267H135.903ZM132.528 35.4545V42H131.522V35.4545H132.528ZM136.67 35.4545V42H135.664V35.4545H136.67ZM141.165 42.1364C140.575 42.1364 140.056 41.9957 139.61 41.7145C139.167 41.4332 138.82 41.0398 138.57 40.5341C138.323 40.0284 138.2 39.4375 138.2 38.7614C138.2 38.0795 138.323 37.4844 138.57 36.9759C138.82 36.4673 139.167 36.0724 139.61 35.7912C140.056 35.5099 140.575 35.3693 141.165 35.3693C141.756 35.3693 142.273 35.5099 142.717 35.7912C143.163 36.0724 143.509 36.4673 143.756 36.9759C144.006 37.4844 144.131 38.0795 144.131 38.7614C144.131 39.4375 144.006 40.0284 143.756 40.5341C143.509 41.0398 143.163 41.4332 142.717 41.7145C142.273 41.9957 141.756 42.1364 141.165 42.1364ZM141.165 41.233C141.614 41.233 141.984 41.1179 142.273 40.8878C142.563 40.6577 142.778 40.3551 142.917 39.9801C143.056 39.6051 143.126 39.1989 143.126 38.7614C143.126 38.3239 143.056 37.9162 142.917 37.5384C142.778 37.1605 142.563 36.8551 142.273 36.6222C141.984 36.3892 141.614 36.2727 141.165 36.2727C140.717 36.2727 140.347 36.3892 140.058 36.6222C139.768 36.8551 139.553 37.1605 139.414 37.5384C139.275 37.9162 139.205 38.3239 139.205 38.7614C139.205 39.1989 139.275 39.6051 139.414 39.9801C139.553 40.3551 139.768 40.6577 140.058 40.8878C140.347 41.1179 140.717 41.233 141.165 41.233ZM148.411 42.1364C147.78 42.1364 147.236 41.9972 146.779 41.7188C146.324 41.4375 145.973 41.0455 145.726 40.5426C145.482 40.0369 145.36 39.4489 145.36 38.7784C145.36 38.108 145.482 37.517 145.726 37.0057C145.973 36.4915 146.317 36.0909 146.757 35.804C147.201 35.5142 147.718 35.3693 148.309 35.3693C148.65 35.3693 148.986 35.4261 149.319 35.5398C149.651 35.6534 149.953 35.8381 150.226 36.0938C150.499 36.3466 150.716 36.6818 150.878 37.0994C151.04 37.517 151.121 38.0312 151.121 38.642V39.0682H146.076V38.1989H150.098C150.098 37.8295 150.025 37.5 149.877 37.2102C149.732 36.9205 149.525 36.6918 149.255 36.5241C148.988 36.3565 148.672 36.2727 148.309 36.2727C147.908 36.2727 147.561 36.3722 147.269 36.571C146.979 36.767 146.756 37.0227 146.6 37.3381C146.444 37.6534 146.365 37.9915 146.365 38.3523V38.9318C146.365 39.4261 146.451 39.8452 146.621 40.1889C146.794 40.5298 147.034 40.7898 147.341 40.9688C147.648 41.1449 148.005 41.233 148.411 41.233C148.675 41.233 148.914 41.196 149.127 41.1222C149.343 41.0455 149.529 40.9318 149.685 40.7812C149.841 40.6278 149.962 40.4375 150.047 40.2102L151.019 40.483C150.917 40.8125 150.745 41.1023 150.503 41.3523C150.262 41.5994 149.963 41.7926 149.608 41.9318C149.253 42.0682 148.854 42.1364 148.411 42.1364Z" fill="black"/>
<path d="M190 2H191.306C191.552 2 191.675 2 191.774 2.04524C191.861 2.08511 191.935 2.14922 191.987 2.22995C192.046 2.32154 192.063 2.44332 192.098 2.68686L192.571 6M192.571 6L193.623 13.7314C193.757 14.7125 193.824 15.2031 194.058 15.5723C194.265 15.8977 194.561 16.1564 194.911 16.3174C195.309 16.5 195.804 16.5 196.794 16.5H205.352C206.295 16.5 206.766 16.5 207.151 16.3304C207.491 16.1809 207.782 15.9398 207.992 15.6342C208.231 15.2876 208.319 14.8247 208.495 13.8988L209.819 6.94969C209.881 6.62381 209.912 6.46087 209.867 6.3335C209.828 6.22177 209.75 6.12768 209.648 6.06802C209.531 6 209.365 6 209.033 6H192.571ZM198 21C198 21.5523 197.552 22 197 22C196.448 22 196 21.5523 196 21C196 20.4477 196.448 20 197 20C197.552 20 198 20.4477 198 21ZM206 21C206 21.5523 205.552 22 205 22C204.448 22 204 21.5523 204 21C204 20.4477 204.448 20 205 20C205.552 20 206 20.4477 206 21Z" stroke="black" stroke-width="2" stroke-linecap="round" stroke-linejoin="round"/>
<path d="M181.688 42L178.688 37.9943H177.614V42H176.557V33.2727H177.614V37.0568H178.074L181.568 33.2727H182.83L179.301 37.108L182.949 42H181.688ZM186.357 42.1364C185.766 42.1364 185.248 41.9957 184.801 41.7145C184.358 41.4332 184.012 41.0398 183.762 40.5341C183.515 40.0284 183.391 39.4375 183.391 38.7614C183.391 38.0795 183.515 37.4844 183.762 36.9759C184.012 36.4673 184.358 36.0724 184.801 35.7912C185.248 35.5099 185.766 35.3693 186.357 35.3693C186.948 35.3693 187.465 35.5099 187.908 35.7912C188.354 36.0724 188.701 36.4673 188.948 36.9759C189.198 37.4844 189.323 38.0795 189.323 38.7614C189.323 39.4375 189.198 40.0284 188.948 40.5341C188.701 41.0398 188.354 41.4332 187.908 41.7145C187.465 41.9957 186.948 42.1364 186.357 42.1364ZM186.357 41.233C186.806 41.233 187.175 41.1179 187.465 40.8878C187.755 40.6577 187.969 40.3551 188.108 39.9801C188.248 39.6051 188.317 39.1989 188.317 38.7614C188.317 38.3239 188.248 37.9162 188.108 37.5384C187.969 37.1605 187.755 36.8551 187.465 36.6222C187.175 36.3892 186.806 36.2727 186.357 36.2727C185.908 36.2727 185.539 36.3892 185.249 36.6222C184.959 36.8551 184.745 37.1605 184.605 37.5384C184.466 37.9162 184.397 38.3239 184.397 38.7614C184.397 39.1989 184.466 39.6051 184.605 39.9801C184.745 40.3551 184.959 40.6577 185.249 40.8878C185.539 41.1179 185.908 41.233 186.357 41.233ZM190.858 44.4545V35.4545H191.83V36.4943H191.949C192.023 36.3807 192.125 36.2358 192.256 36.0597C192.389 35.8807 192.58 35.7216 192.827 35.5824C193.077 35.4403 193.415 35.3693 193.841 35.3693C194.392 35.3693 194.878 35.5071 195.298 35.7827C195.719 36.0582 196.047 36.4489 196.283 36.9545C196.518 37.4602 196.636 38.0568 196.636 38.7443C196.636 39.4375 196.518 40.0384 196.283 40.5469C196.047 41.0526 195.72 41.4446 195.303 41.723C194.885 41.9986 194.403 42.1364 193.858 42.1364C193.438 42.1364 193.101 42.0668 192.848 41.9276C192.595 41.7855 192.401 41.625 192.264 41.446C192.128 41.2642 192.023 41.1136 191.949 40.9943H191.864V44.4545H190.858ZM191.847 38.7273C191.847 39.2216 191.919 39.6577 192.064 40.0355C192.209 40.4105 192.42 40.7045 192.699 40.9176C192.977 41.1278 193.318 41.233 193.722 41.233C194.142 41.233 194.493 41.1222 194.774 40.9006C195.058 40.6761 195.271 40.375 195.413 39.9972C195.558 39.6165 195.631 39.1932 195.631 38.7273C195.631 38.267 195.56 37.8523 195.418 37.483C195.278 37.1108 195.067 36.8168 194.783 36.6009C194.501 36.3821 194.148 36.2727 193.722 36.2727C193.313 36.2727 192.969 36.3764 192.69 36.5838C192.412 36.7884 192.202 37.0753 192.06 37.4446C191.918 37.8111 191.847 38.2386 191.847 38.7273ZM197.761 40.3295H198.835C198.858 40.625 198.991 40.8494 199.236 41.0028C199.483 41.1562 199.804 41.233 200.199 41.233C200.602 41.233 200.947 41.1506 201.234 40.9858C201.521 40.8182 201.665 40.5483 201.665 40.1761C201.665 39.9574 201.611 39.767 201.503 39.6051C201.395 39.4403 201.243 39.3125 201.047 39.2216C200.851 39.1307 200.619 39.0852 200.352 39.0852H199.227V38.1818H200.352C200.753 38.1818 201.048 38.0909 201.239 37.9091C201.432 37.7273 201.528 37.5 201.528 37.2273C201.528 36.9347 201.425 36.7003 201.217 36.5241C201.01 36.3452 200.716 36.2557 200.335 36.2557C199.952 36.2557 199.632 36.3423 199.376 36.5156C199.121 36.6861 198.986 36.9062 198.972 37.1761H197.915C197.926 36.8239 198.034 36.5128 198.239 36.2429C198.443 35.9702 198.722 35.7571 199.074 35.6037C199.426 35.4474 199.83 35.3693 200.284 35.3693C200.744 35.3693 201.143 35.4503 201.482 35.6122C201.822 35.7713 202.085 35.9886 202.27 36.2642C202.457 36.5369 202.551 36.8466 202.551 37.1932C202.551 37.5625 202.447 37.8608 202.24 38.0881C202.033 38.3153 201.773 38.4773 201.46 38.5739V38.642C201.707 38.6591 201.922 38.7386 202.104 38.8807C202.288 39.0199 202.432 39.2031 202.534 39.4304C202.636 39.6548 202.688 39.9034 202.688 40.1761C202.688 40.5739 202.581 40.9205 202.368 41.2159C202.155 41.5085 201.862 41.7358 201.49 41.8977C201.118 42.0568 200.693 42.1364 200.216 42.1364C199.753 42.1364 199.338 42.0611 198.972 41.9105C198.605 41.7571 198.314 41.5455 198.098 41.2756C197.885 41.0028 197.773 40.6875 197.761 40.3295ZM205.106 40.517L208.259 35.4545H209.418V42H208.413V36.9375L205.276 42H204.1V35.4545H205.106V40.517ZM215.641 38.267V39.2045H212.027V38.267H215.641ZM212.266 35.4545V42H211.26V35.4545H212.266ZM216.408 35.4545V42H215.402V35.4545H216.408ZM220.171 42.1534C219.756 42.1534 219.38 42.0753 219.042 41.919C218.703 41.7599 218.435 41.5312 218.236 41.233C218.037 40.9318 217.938 40.5682 217.938 40.142C217.938 39.767 218.012 39.4631 218.159 39.2301C218.307 38.9943 218.505 38.8097 218.752 38.6761C218.999 38.5426 219.272 38.4432 219.57 38.3778C219.871 38.3097 220.174 38.2557 220.478 38.2159C220.875 38.1648 221.198 38.1264 221.445 38.1009C221.695 38.0724 221.877 38.0256 221.99 37.9602C222.107 37.8949 222.165 37.7812 222.165 37.6193V37.5852C222.165 37.1648 222.05 36.8381 221.82 36.6051C221.593 36.3722 221.248 36.2557 220.784 36.2557C220.304 36.2557 219.928 36.3608 219.655 36.571C219.382 36.7812 219.191 37.0057 219.08 37.2443L218.125 36.9034C218.296 36.5057 218.523 36.196 218.807 35.9744C219.094 35.75 219.407 35.5937 219.745 35.5057C220.086 35.4148 220.421 35.3693 220.75 35.3693C220.961 35.3693 221.202 35.3949 221.475 35.446C221.75 35.4943 222.016 35.5952 222.272 35.7486C222.53 35.902 222.745 36.1335 222.915 36.4432C223.086 36.7528 223.171 37.1676 223.171 37.6875V42H222.165V41.1136H222.114C222.046 41.2557 221.932 41.4077 221.773 41.5696C221.614 41.7315 221.402 41.8693 221.138 41.983C220.874 42.0966 220.551 42.1534 220.171 42.1534ZM220.324 41.25C220.722 41.25 221.057 41.1719 221.33 41.0156C221.605 40.8594 221.813 40.6577 221.952 40.4105C222.094 40.1634 222.165 39.9034 222.165 39.6307V38.7102C222.123 38.7614 222.029 38.8082 221.884 38.8509C221.742 38.8906 221.577 38.9261 221.39 38.9574C221.205 38.9858 221.025 39.0114 220.848 39.0341C220.675 39.054 220.534 39.071 220.426 39.0852C220.165 39.1193 219.921 39.1747 219.694 39.2514C219.469 39.3253 219.287 39.4375 219.148 39.5881C219.012 39.7358 218.944 39.9375 218.944 40.1932C218.944 40.5426 219.073 40.8068 219.331 40.9858C219.593 41.1619 219.924 41.25 220.324 41.25Z" fill="black"/>
</svg>
